<?xml version="1.0" encoding="UTF-8"?>
<svg xmlns="http://www.w3.org/2000/svg" xmlns:xlink="http://www.w3.org/1999/xlink" width="2501" height="2501" viewBox="0 0 2501 2501">
<path fill-rule="evenodd" fill="rgb(255, 255, 255)" fill-opacity="1" d="M 1582.261719 1086.261719 C 1563.839844 1359.058594 1520.820312 1601.414062 1366.128906 1705.503906 L 975.160156 1705.503906 C 820.472656 1601.414062 777.457031 1359.070312 759.035156 1086.269531 C 759.121094 1094.058594 943.371094 1100.378906 1170.648438 1100.378906 C 1397.980469 1100.378906 1582.261719 1094.058594 1582.261719 1086.261719 "/>
<path fill-rule="nonzero" fill="rgb(255, 255, 255)" fill-opacity="1" d="M 1596.828125 1125.53125 C 1616.191406 1128.089844 1633.769531 1132.78125 1649.449219 1139.308594 C 1683.550781 1153.511719 1708.820312 1176.171875 1724.570312 1204.71875 C 1740.191406 1233.011719 1745.851562 1265.960938 1740.910156 1301.070312 C 1735.070312 1342.609375 1714.269531 1387.480469 1677.429688 1430.511719 C 1641.648438 1472.308594 1592.898438 1507.714844 1541.660156 1544.925781 C 1526.988281 1555.570312 1512.03125 1566.335938 1497.191406 1577.371094 C 1515.800781 1541.277344 1530.300781 1502.785156 1541.921875 1464.148438 C 1546.980469 1447.328125 1551.550781 1430.328125 1555.699219 1413.210938 C 1574.070312 1398.160156 1590.488281 1383.101562 1603.679688 1367.691406 C 1628.089844 1339.171875 1641.558594 1311.660156 1644.898438 1287.890625 C 1646.921875 1273.539062 1645.160156 1261.070312 1639.820312 1251.398438 C 1634.628906 1241.980469 1625.390625 1234.121094 1612.300781 1228.679688 C 1605.140625 1225.699219 1596.96875 1223.441406 1587.808594 1221.988281 C 1591.421875 1189.898438 1594.339844 1157.71875 1596.828125 1125.53125 "/>
<path fill-rule="nonzero" fill="rgb(255, 255, 255)" fill-opacity="1" d="M 1175.5 1004.988281 C 1180.96875 977.761719 1167.171875 951.058594 1153.921875 925.421875 C 1129.679688 878.519531 1106.828125 834.320312 1161.78125 785.25 C 1165.671875 781.769531 1170.359375 780.261719 1175.558594 780.820312 C 1180.761719 781.371094 1185.03125 783.828125 1188.109375 788.058594 L 1188.519531 788.628906 C 1193.808594 795.898438 1192.929688 805.828125 1186.421875 812.050781 C 1152.71875 844.261719 1168.929688 875.609375 1186.101562 908.828125 C 1202.578125 940.71875 1219.738281 973.921875 1211.078125 1012.691406 C 1209.871094 1018.101562 1206.621094 1022.261719 1201.671875 1024.75 C 1196.71875 1027.238281 1191.441406 1027.359375 1186.371094 1025.101562 L 1185.730469 1024.808594 C 1178.011719 1021.371094 1173.839844 1013.28125 1175.5 1004.988281 "/>
<path fill-rule="nonzero" fill="rgb(255, 255, 255)" fill-opacity="1" d="M 1028.800781 1004.988281 C 1034.261719 977.761719 1020.46875 951.058594 1007.21875 925.421875 C 982.976562 878.519531 960.132812 834.320312 1015.070312 785.25 C 1018.96875 781.769531 1023.660156 780.261719 1028.859375 780.820312 C 1034.058594 781.371094 1038.320312 783.828125 1041.398438 788.058594 L 1041.820312 788.628906 C 1047.109375 795.898438 1046.21875 805.828125 1039.71875 812.050781 C 1006.019531 844.261719 1022.21875 875.609375 1039.398438 908.828125 C 1055.878906 940.71875 1073.039062 973.921875 1064.378906 1012.691406 C 1063.171875 1018.101562 1059.921875 1022.261719 1054.96875 1024.75 C 1050.011719 1027.238281 1044.730469 1027.359375 1039.671875 1025.101562 L 1039.019531 1024.808594 C 1031.308594 1021.371094 1027.128906 1013.28125 1028.800781 1004.988281 "/>
<path fill-rule="nonzero" fill="rgb(255, 255, 255)" fill-opacity="1" d="M 1322.199219 1004.988281 C 1327.671875 977.761719 1313.871094 951.058594 1300.621094 925.421875 C 1276.378906 878.519531 1253.539062 834.320312 1308.480469 785.25 C 1312.378906 781.769531 1317.058594 780.261719 1322.261719 780.820312 C 1327.460938 781.371094 1331.730469 783.828125 1334.808594 788.058594 L 1335.21875 788.628906 C 1340.519531 795.898438 1339.628906 805.828125 1333.121094 812.050781 C 1299.429688 844.261719 1315.628906 875.609375 1332.800781 908.828125 C 1349.289062 940.71875 1366.441406 973.921875 1357.78125 1012.691406 C 1356.570312 1018.101562 1353.320312 1022.261719 1348.371094 1024.75 C 1343.421875 1027.238281 1338.140625 1027.359375 1333.078125 1025.101562 L 1332.429688 1024.808594 C 1324.71875 1021.371094 1320.539062 1013.28125 1322.199219 1004.988281 "/>
<path fill-rule="evenodd" fill="rgb(255, 255, 255)" fill-opacity="1" d="M 1170.648438 1691.386719 C 1278.609375 1691.386719 1366.128906 1697.707031 1366.128906 1705.503906 C 1366.128906 1713.296875 1278.609375 1719.617188 1170.648438 1719.617188 C 1062.679688 1719.617188 975.160156 1713.296875 975.160156 1705.503906 C 975.160156 1697.707031 1062.679688 1691.386719 1170.648438 1691.386719 "/>
</svg>
