<?xml version="1.0" standalone="no"?>
<!DOCTYPE svg PUBLIC "-//W3C//DTD SVG 20010904//EN"
 "http://www.w3.org/TR/2001/REC-SVG-20010904/DTD/svg10.dtd">
<svg version="1.0" xmlns="http://www.w3.org/2000/svg"
 width="2000.000000pt" height="2000.000000pt" viewBox="0 0 2000.000000 2000.000000"
 preserveAspectRatio="xMidYMid meet">

<g transform="translate(0.000000,2000.000000) scale(0.100000,-0.100000)"
fill="#000000" stroke="none">
<path d="M9785 13114 c-16 -2 -70 -9 -120 -15 -445 -54 -899 -245 -1262 -531
-43 -33 -148 -131 -233 -217 -136 -136 -185 -194 -295 -346 -38 -53 -141 -227
-183 -311 -302 -601 -352 -1328 -136 -1971 126 -374 335 -712 618 -996 488
-491 1127 -756 1826 -758 688 -2 1338 268 1826 758 695 699 930 1720 612 2658
-84 246 -217 494 -396 735 -77 104 -367 391 -482 477 -361 269 -733 425 -1187
499 -93 15 -516 28 -588 18z m205 -344 c0 -207 4 -320 10 -320 6 0 10 113 10
320 l0 320 43 0 c124 0 401 -36 392 -51 -9 -14 -225 -610 -225 -620 0 -43 34
36 130 304 62 171 115 314 117 317 12 14 453 -109 453 -126 0 -3 -71 -89 -157
-192 -86 -103 -193 -230 -237 -282 -43 -52 -86 -103 -94 -112 -8 -9 -12 -22
-10 -29 2 -7 120 126 262 295 241 287 260 307 285 301 75 -19 461 -231 461
-253 0 -4 -196 -119 -435 -257 -239 -137 -435 -253 -435 -257 0 -5 5 -8 10 -8
6 0 206 113 444 250 238 138 440 250 448 250 22 0 223 -165 328 -270 96 -96
176 -188 169 -194 -2 -1 -215 -40 -474 -85 -675 -118 -835 -148 -842 -155 -15
-14 8 -15 83 -1 332 60 1225 215 1242 215 62 0 325 -444 420 -710 40 -111 93
-292 88 -297 -3 -3 -30 29 -60 71 -79 107 -120 143 -206 184 -63 30 -94 55
-195 156 -146 148 -196 178 -305 184 -96 5 -215 -22 -360 -83 l-106 -45 -302
53 c-200 35 -302 49 -302 42 0 -6 28 -17 63 -23 34 -6 157 -27 272 -47 116
-20 216 -38 224 -41 8 -3 -15 -22 -55 -46 -38 -23 -83 -52 -99 -64 -46 -35
-206 -114 -229 -114 -12 0 -71 29 -131 65 -61 36 -113 65 -117 65 -27 0 5 -26
92 -76 55 -32 100 -62 100 -66 0 -14 -47 -9 -122 12 -171 47 -320 11 -562
-139 -215 -132 -336 -187 -336 -151 0 5 9 33 20 61 12 29 18 59 15 68 -5 11
-15 -8 -33 -54 -14 -38 -26 -71 -28 -73 -1 -2 -30 4 -65 13 -59 16 -158 77
-159 99 0 5 20 33 45 62 25 28 45 57 45 63 0 12 -20 15 -20 4 0 -5 -22 -32
-49 -62 l-47 -54 -110 73 c-60 40 -113 76 -117 80 -5 4 39 35 98 69 58 34 103
67 99 72 -4 6 -14 5 -27 -4 -12 -7 -63 -37 -112 -65 l-91 -52 -118 60 c-66 33
-169 76 -230 95 -97 31 -155 54 -135 55 20 0 634 112 638 115 18 18 -46 11
-327 -39 -175 -31 -327 -56 -339 -56 -30 0 -102 58 -243 195 -198 192 -243
215 -433 215 -54 0 -97 4 -95 8 11 29 96 131 108 132 7 0 165 -27 350 -60 988
-175 1000 -177 978 -155 -5 5 -1288 235 -1311 235 -27 0 192 228 323 336 47
39 106 85 131 103 l47 33 273 -158 c151 -86 338 -195 417 -241 191 -111 202
-117 202 -101 0 7 -22 24 -48 38 -26 14 -108 61 -182 105 -74 43 -247 143
-385 222 -137 80 -251 146 -253 148 -12 12 304 188 436 242 l52 22 74 -87
c146 -173 302 -359 370 -440 61 -73 86 -95 86 -76 0 6 -86 111 -324 393 -98
117 -174 216 -170 221 21 20 444 139 444 125 0 -8 229 -627 234 -632 24 -24 3
44 -97 319 -76 207 -110 315 -103 319 6 4 61 12 121 18 61 6 124 13 140 15 17
1 58 4 93 5 l62 1 0 -320z m-1838 -815 c83 -17 105 -33 279 -201 75 -72 156
-145 180 -161 64 -44 160 -90 215 -104 82 -20 226 -83 330 -144 82 -47 249
-156 289 -187 6 -4 34 -27 64 -50 73 -58 114 -88 196 -140 128 -83 204 -177
205 -253 0 -86 -83 -169 -230 -230 -47 -20 -102 -50 -123 -66 -38 -30 -38 -31
-82 -15 -70 23 -151 82 -275 201 -120 115 -188 173 -230 196 -14 8 -68 16
-120 19 -132 7 -162 24 -221 124 -88 147 -142 183 -308 206 -45 6 -93 21 -123
37 -67 36 -145 124 -192 214 -54 103 -81 135 -132 160 -57 27 -109 20 -172
-22 -24 -16 -47 -27 -50 -24 -8 7 150 318 195 385 31 44 45 56 73 61 63 11
164 9 232 -6z m3664 -295 c32 -16 92 -66 172 -146 96 -96 137 -130 193 -158
103 -52 121 -67 185 -154 31 -42 73 -94 93 -115 32 -34 37 -47 52 -139 10 -57
16 -105 14 -107 -7 -6 -117 59 -175 104 -30 23 -98 82 -150 130 -119 109 -167
145 -195 145 -33 0 -69 -32 -132 -118 -31 -43 -58 -79 -60 -81 -2 -3 -23 6
-48 18 -50 25 -130 42 -315 67 -170 22 -329 56 -441 94 -106 35 -229 89 -229
100 0 4 15 11 33 14 51 9 164 67 278 142 304 198 577 274 725 204z m-3939
-136 c28 -17 72 -82 109 -159 67 -138 190 -228 344 -251 137 -20 191 -56 260
-174 70 -118 122 -150 247 -150 57 0 88 -5 120 -21 23 -11 108 -83 188 -159
152 -144 221 -197 305 -232 l50 -21 0 -54 c0 -69 18 -112 64 -149 34 -28 83
-110 73 -121 -8 -7 -122 53 -300 159 -245 146 -355 188 -495 188 -99 0 -165
-18 -334 -95 -252 -112 -406 -154 -763 -205 -115 -17 -217 -31 -225 -33 -11
-1 -19 22 -34 98 -15 82 -19 152 -20 390 -1 307 9 407 65 624 45 175 71 241
116 291 78 87 165 115 230 74z m2794 -222 c41 -16 128 -53 194 -82 177 -76
356 -119 700 -165 107 -15 216 -47 215 -64 -1 -15 -93 -73 -160 -100 -95 -39
-155 -80 -310 -214 -69 -60 -138 -115 -155 -124 -16 -9 -66 -20 -111 -24 -132
-14 -176 -36 -395 -200 -109 -82 -203 -149 -208 -149 -6 0 -23 17 -38 37 -42
55 -39 115 12 222 49 104 53 169 17 243 -60 121 -255 241 -519 319 -46 13 -83
27 -83 30 0 4 15 13 33 20 17 7 93 50 169 96 75 45 169 98 208 118 162 81 292
93 431 37z m1406 -164 c34 -29 97 -85 140 -123 91 -82 186 -151 260 -190 48
-25 53 -30 59 -71 3 -24 4 -147 1 -272 -3 -172 -10 -257 -27 -352 -12 -69 -25
-129 -30 -133 -4 -5 -27 5 -50 22 -23 16 -76 41 -119 56 -93 31 -143 61 -276
168 -157 126 -253 160 -390 136 -189 -32 -430 -152 -648 -323 -153 -119 -277
-186 -376 -202 -38 -6 -40 -5 -46 22 -18 82 -49 168 -79 216 l-33 55 144 109
c286 217 293 221 439 239 117 14 135 24 281 153 129 113 189 157 268 192 39
17 86 39 104 48 47 23 142 112 187 175 47 65 105 127 119 127 6 0 38 -24 72
-52z m-2246 -148 c275 -81 415 -149 512 -246 90 -91 101 -166 42 -289 -45 -94
-56 -174 -32 -222 9 -17 37 -55 62 -84 25 -30 57 -78 71 -107 49 -103 84 -290
99 -533 l7 -106 -38 -6 c-121 -20 -332 -29 -562 -24 -140 3 -255 7 -257 9 -1
1 -8 91 -14 198 -20 325 -39 458 -77 532 -8 15 -31 43 -50 60 -47 43 -64 77
-64 131 0 60 29 89 138 138 118 54 140 67 189 105 76 62 105 170 66 252 -21
45 -131 157 -197 200 -27 18 -45 32 -39 32 5 0 70 -18 144 -40z m-859 -659
c88 -23 191 -73 367 -178 111 -67 274 -156 303 -165 11 -4 37 -200 38 -279 l0
-46 -112 -17 c-216 -33 -363 -83 -418 -141 -24 -26 -25 -31 -24 -158 3 -299
71 -601 188 -831 112 -220 256 -370 453 -471 l68 -35 -44 0 c-74 0 -249 29
-401 66 -932 230 -1653 966 -1873 1912 -6 27 -19 24 248 62 351 50 491 87 749
201 87 39 181 76 210 84 73 20 161 18 248 -4z m2904 -21 c44 -22 119 -74 169
-115 109 -92 147 -115 250 -150 73 -25 155 -71 170 -95 9 -15 -41 -190 -91
-318 -298 -765 -943 -1342 -1727 -1547 -113 -29 -289 -65 -322 -65 -5 0 26 20
69 45 262 149 440 408 535 778 l29 112 164 5 c171 5 184 9 230 57 75 79 57
203 -36 258 -40 23 -52 25 -179 25 l-137 0 0 88 c0 86 -1 89 -32 119 -48 45
-108 72 -237 104 -63 16 -116 31 -118 33 -5 5 -23 123 -23 151 0 18 10 23 60
33 87 18 219 89 350 188 305 230 523 332 716 333 76 1 87 -2 160 -39z m-2188
-717 l3 -31 -68 -7 c-106 -11 -215 -42 -241 -69 l-24 -23 24 -27 c52 -59 284
-90 663 -90 438 1 713 43 723 110 4 28 -16 43 -91 68 -54 19 -62 25 -65 49 -4
33 2 34 116 6 157 -39 247 -92 235 -138 -17 -67 -189 -129 -463 -168 -178 -25
-702 -25 -875 0 -287 42 -465 108 -465 172 0 65 162 131 415 169 50 8 95 13
100 12 6 -2 11 -16 13 -33z m6 -129 c4 -37 4 -69 1 -72 -6 -6 -182 22 -235 38
-19 5 -42 15 -50 20 -13 9 -13 11 0 20 20 13 79 30 165 45 117 22 111 25 119
-51z m1035 12 c27 -17 -6 -42 -81 -60 -28 -6 -28 -6 -28 43 l0 49 49 -13 c27
-7 54 -16 60 -19z m236 -183 c-30 -411 -129 -722 -302 -949 -189 -248 -485
-384 -716 -330 -387 91 -664 462 -762 1021 -21 120 -32 335 -17 335 6 0 13 -4
17 -9 11 -18 162 -70 264 -91 312 -63 800 -70 1146 -15 120 19 258 60 320 95
27 15 52 28 53 29 2 0 1 -38 -3 -86z m319 -37 c72 -30 100 -106 67 -181 -31
-71 -71 -85 -243 -85 -104 0 -138 3 -138 13 0 19 21 219 26 245 4 21 8 22 130
22 83 0 136 -5 158 -14z"/>
<path d="M9892 12268 c-45 -32 -118 -133 -143 -198 -73 -192 -63 -441 24 -604
36 -67 120 -159 156 -171 37 -12 46 6 32 71 -15 79 -14 284 4 434 27 225 14
480 -25 488 -8 1 -30 -8 -48 -20z m11 -118 c-1 -14 -7 -98 -14 -188 -12 -150
-8 -298 14 -527 3 -33 -39 -32 -56 2 -69 134 -65 630 6 719 24 31 53 28 50 -6z"/>
<path d="M10004 12273 c26 -84 33 -246 16 -398 -29 -266 -33 -335 -22 -433 15
-126 24 -152 52 -145 29 8 104 82 140 140 32 50 73 167 84 241 l6 42 -45 0
c-50 0 -49 2 -60 -107 -7 -73 -31 -171 -47 -190 -6 -7 -20 -13 -31 -13 -18 0
-19 4 -13 68 16 167 18 388 6 537 -7 86 -9 159 -6 163 12 11 40 -13 58 -49 9
-19 22 -74 28 -124 19 -145 14 -135 66 -135 l46 0 -7 33 c-33 167 -67 240
-150 325 -50 51 -67 62 -94 62 -26 0 -31 -3 -27 -17z"/>
<path d="M10020 10847 c3 -3 34 -22 69 -42 35 -21 81 -55 102 -77 21 -22 39
-35 39 -29 0 19 -69 89 -114 115 -38 22 -108 47 -96 33z"/>
<path d="M9981 10494 c-18 -50 -71 -99 -149 -138 -73 -37 -95 -56 -111 -98
-11 -29 2 -92 20 -104 8 -4 7 0 0 14 -18 33 -13 86 10 110 11 12 50 38 87 56
77 39 146 108 157 155 10 45 1 48 -14 5z"/>
<path d="M10106 10255 c3 -11 8 -58 11 -105 4 -66 0 -103 -16 -167 -21 -82
-25 -146 -12 -193 5 -17 7 -3 8 40 0 36 11 101 23 145 26 92 24 206 -4 265 -9
19 -14 26 -10 15z"/>
<path d="M10322 9575 c0 -127 2 -161 10 -135 13 48 13 249 0 280 -8 19 -11
-16 -10 -145z"/>
<path d="M10101 9467 c-1 -56 3 -86 9 -82 12 7 12 122 0 150 -6 13 -9 -10 -9
-68z"/>
<path d="M9356 9153 c-11 -11 -6 -78 14 -196 47 -277 157 -508 309 -650 45
-42 81 -60 81 -39 0 4 -28 34 -61 67 -168 164 -276 425 -315 758 -6 55 -14 73
-28 60z"/>
<path d="M9890 8187 c0 -15 48 -37 81 -37 27 0 23 19 -6 30 -55 21 -75 23 -75
7z"/>
<path d="M7287 7246 c-116 -32 -162 -151 -88 -229 34 -37 78 -60 171 -87 136
-41 184 -81 164 -137 -5 -15 -24 -38 -43 -50 -28 -19 -47 -23 -113 -23 -87 0
-116 11 -162 59 -44 46 -66 42 -66 -12 0 -42 2 -45 53 -72 43 -24 67 -30 140
-33 109 -5 164 9 218 57 34 30 42 44 46 83 10 87 -28 134 -142 177 -180 67
-200 77 -214 102 -33 59 29 119 124 119 46 0 123 -32 131 -55 3 -8 17 -15 30
-15 22 0 24 4 24 45 l0 44 -52 16 c-76 23 -165 27 -221 11z"/>
<path d="M8054 7251 c-156 -40 -182 -208 -44 -277 24 -12 83 -35 130 -49 111
-35 150 -64 150 -111 0 -64 -51 -94 -161 -94 -83 0 -129 17 -160 59 -12 17
-31 31 -41 31 -16 0 -19 -7 -16 -47 3 -45 5 -48 53 -72 41 -22 66 -27 146 -29
82 -3 104 -1 149 19 99 42 137 135 87 210 -32 48 -75 73 -182 109 -125 42
-159 65 -163 112 -2 29 2 40 23 57 57 44 163 39 219 -10 49 -43 66 -39 66 15
0 44 -1 44 -47 61 -57 19 -165 28 -209 16z"/>
<path d="M4764 7234 c-60 -22 -119 -77 -150 -140 -52 -107 -33 -257 44 -337
56 -60 108 -81 208 -85 83 -4 97 -2 153 24 109 48 161 134 161 264 0 122 -44
202 -141 255 -47 25 -66 30 -144 32 -62 2 -103 -2 -131 -13z m222 -60 c54 -28
101 -100 109 -170 21 -167 -67 -284 -214 -284 -64 0 -91 11 -140 55 -95 86
-94 284 2 373 57 54 166 65 243 26z"/>
<path d="M11125 7237 c-123 -41 -195 -142 -195 -273 0 -126 47 -211 144 -261
74 -39 213 -43 306 -11 l65 23 3 48 c3 40 0 47 -15 47 -10 0 -30 -13 -45 -29
-53 -56 -187 -72 -266 -32 -154 79 -140 369 21 430 72 28 197 3 254 -51 33
-31 55 -17 51 33 -3 40 -5 42 -53 61 -64 26 -213 34 -270 15z"/>
<path d="M11950 7241 c-130 -43 -202 -141 -202 -279 -1 -114 44 -200 136 -256
41 -26 60 -30 136 -34 64 -3 101 0 137 12 133 44 209 182 182 330 -27 152
-118 227 -279 233 -47 1 -96 -1 -110 -6z m214 -78 c53 -38 87 -99 93 -172 15
-159 -73 -271 -212 -271 -136 0 -225 111 -213 263 12 141 99 222 232 213 45
-3 69 -11 100 -33z"/>
<path d="M5500 6960 l0 -280 188 0 c225 0 262 9 332 80 143 142 85 409 -101
464 -39 12 -98 16 -236 16 l-183 0 0 -280z m405 201 c75 -34 115 -104 115
-201 0 -66 -17 -116 -53 -157 -49 -56 -77 -63 -242 -63 l-145 0 0 220 0 220
143 0 c116 0 149 -4 182 -19z"/>
<path d="M6427 7143 c37 -54 91 -131 120 -172 l53 -74 0 -108 0 -109 40 0 40
0 0 116 0 116 61 86 c34 48 69 98 79 112 9 14 34 49 54 78 l38 52 -36 0 c-34
0 -38 -4 -128 -135 -51 -74 -96 -135 -99 -135 -3 0 -28 33 -55 73 -136 201
-132 197 -186 197 l-49 0 68 -97z"/>
<path d="M8680 6960 l0 -280 220 0 c183 0 220 2 220 14 0 8 3 21 6 30 5 14
-14 16 -180 16 l-186 0 0 120 0 120 105 0 105 0 0 30 0 30 -105 0 -105 0 0 70
0 70 183 0 184 0 -5 30 -4 30 -219 0 -219 0 0 -280z"/>
<path d="M9471 7193 c18 -27 72 -105 121 -174 l88 -126 0 -107 0 -106 40 0 40
0 0 116 0 116 106 151 c58 83 108 157 111 164 4 9 -4 13 -26 13 -27 0 -38 -10
-106 -107 -41 -60 -85 -121 -98 -137 l-22 -28 -95 136 -95 136 -48 0 -48 0 32
-47z"/>
<path d="M12660 6960 l0 -280 40 0 40 0 0 150 0 150 105 0 105 0 0 30 0 30
-105 0 -105 0 0 70 0 70 180 0 c189 0 191 0 174 44 -5 14 -34 16 -220 16
l-214 0 0 -280z"/>
<path d="M13430 6960 l0 -280 40 0 40 0 0 150 0 150 105 0 105 0 0 30 0 30
-105 0 -105 0 0 70 0 70 180 0 c189 0 191 0 174 44 -5 14 -34 16 -220 16
l-214 0 0 -280z"/>
<path d="M14200 6960 l0 -280 218 2 217 3 3 28 3 27 -180 0 -181 0 0 120 0
119 103 3 102 3 3 28 3 27 -105 0 -106 0 0 70 0 70 180 0 c189 0 191 0 174 44
-5 14 -34 16 -220 16 l-214 0 0 -280z"/>
<path d="M14970 6960 l0 -280 218 2 217 3 3 28 3 27 -180 0 -181 0 0 120 0
120 105 0 105 0 0 30 0 30 -105 0 -105 0 0 70 0 70 181 0 180 0 -3 28 -3 27
-217 3 -218 2 0 -280z"/>
</g>
</svg>
